<?xml version="1.0" standalone="no"?>
<!DOCTYPE svg PUBLIC "-//W3C//DTD SVG 1.1//EN" "http://www.w3.org/Graphics/SVG/1.1/DTD/svg11.dtd" >
<svg xmlns="http://www.w3.org/2000/svg" xmlns:xlink="http://www.w3.org/1999/xlink" version="1.1">
<metadata></metadata>
<defs>
<font id="proxima_nova_thinthin" horiz-adv-x="425" >
<font-face units-per-em="2048" ascent="1536" descent="-512" />
<missing-glyph horiz-adv-x="532" />
<glyph horiz-adv-x="0" />
<glyph horiz-adv-x="682" />
<glyph unicode=" "  horiz-adv-x="532" />
<glyph unicode="&#x09;" horiz-adv-x="532" />
<glyph unicode="&#xa0;" horiz-adv-x="532" />
<glyph unicode="!" d="M145 49q0 26 20 46t48 20t48 -20t20 -46q0 -27 -20 -47t-48 -20t-48 20t-20 47zM170 1366h86l-23 -1036h-40z" />
<glyph unicode="&#x22;" horiz-adv-x="593" d="M127 1333q0 21 15 38q14 15 38 15t38 -15q15 -17 15 -38l-30 -426h-45q-31 417 -31 426zM360 1333q0 20 16 38q14 15 38 15t38 -15q15 -17 15 -38l-31 -426h-45q-31 417 -31 426z" />
<glyph unicode="#" horiz-adv-x="1161" d="M53 391l19 60h237l156 464h-240l17 60h243l129 391h68l-129 -391h254l129 391h68l-132 -391h236l-14 -60h-240l-158 -464h246l-18 -60h-246l-131 -391h-68l133 391h-256l-131 -391h-67l131 391h-236zM377 451h252l157 464h-254z" />
<glyph unicode="$" horiz-adv-x="1177" d="M109 193l53 47q69 -84 169 -140q102 -57 232 -63v651q-42 11 -88 26q-48 15 -83 28q-40 15 -79 36q-26 14 -64 44q-32 25 -53 57q-18 28 -32 71q-12 37 -12 90q0 107 57 184q60 81 150 121q93 41 204 44v184h66v-187q251 -15 393 -190l-51 -47q-125 160 -342 176v-584 q68 -19 106 -33q42 -15 96 -39q55 -25 90 -52q34 -27 68 -67q31 -36 48 -90q16 -49 16 -114q0 -46 -12 -93q-12 -45 -42 -95t-76 -87q-47 -38 -122 -63q-80 -27 -172 -31v-182h-66v180q-146 4 -263 63q-115 58 -191 155zM223 1040q0 -48 20 -90q19 -39 47 -67t77 -52 q53 -26 90 -38q44 -15 106 -33v567q-144 -4 -242 -86q-98 -81 -98 -201zM629 37q80 5 143 27q63 23 101 53q36 29 63 72q26 42 35 79q10 43 10 78q0 57 -20 106q-19 46 -50 79q-32 34 -80 60q-46 25 -93 43q-45 17 -109 36v-633z" />
<glyph unicode="%" horiz-adv-x="1452" d="M74 1051q0 145 88 240t225 95q136 0 225 -95q88 -94 88 -240q0 -144 -88 -238t-225 -94t-225 94t-88 238zM141 1051q0 -113 70 -195t176 -82q107 0 177 82q69 81 69 195q0 115 -69 198q-69 82 -177 82q-107 0 -176 -82q-70 -84 -70 -198zM260 0l873 1366h75l-874 -1366 h-74zM752 307q0 145 88 240q88 96 225 96t225 -96q88 -95 88 -240q0 -143 -88 -237q-89 -95 -225 -95t-225 95q-88 94 -88 237zM819 307q0 -114 69 -195t177 -81t177 81t69 195q0 117 -69 199t-177 82t-177 -82t-69 -199z" />
<glyph unicode="&#x26;" horiz-adv-x="1304" d="M96 342q0 77 25 144q23 63 72 116q43 47 95 86q43 32 117 74q-118 185 -118 317q0 133 89 220q88 87 216 87q121 0 194 -65q72 -64 72 -184q0 -55 -20 -106t-48 -85t-78 -72q-51 -39 -88 -60q-73 -42 -102 -58q-2 -1 -22 -13q78 -114 192 -235q108 -120 205 -217 q91 136 162 350l65 -25q0 -1 -18 -46t-21 -55q-2 -6 -20 -51q-12 -30 -26 -58q-3 -6 -11.5 -24t-14.5 -30q-25 -51 -31 -60q-17 -29 -34 -52q133 -130 262 -240h-108q-85 74 -197 182q-163 -207 -407 -207q-173 0 -288 97q-114 96 -114 270zM168 342q0 -144 96 -225 q95 -80 234 -80q200 0 356 196q-163 167 -215 230q-116 129 -199 246q-62 -36 -105 -69q-42 -32 -84 -77q-41 -44 -62 -100q-21 -55 -21 -121zM358 1079q0 -118 107 -282q16 9 40 21.5t31 16.5q6 4 15 9t23 13t25 15q40 24 62 42q24 20 49 44q28 27 43 53q11 20 23 57 q10 31 10 69q0 89 -54 139q-53 49 -140 49q-98 0 -166 -69q-68 -70 -68 -177z" />
<glyph unicode="'" horiz-adv-x="360" d="M127 1333q0 21 15 38q14 15 38 15t38 -15q15 -17 15 -38l-30 -426h-45q-31 417 -31 426z" />
<glyph unicode="(" horiz-adv-x="421" d="M96 498q0 482 258 905l33 -23q-111 -232 -165 -429t-54 -453q0 -257 55 -453q56 -201 164 -428l-33 -25q-258 423 -258 906z" />
<glyph unicode=")" horiz-adv-x="421" d="M35 -383q108 227 164 428q55 196 55 453q0 256 -54 453t-165 429l33 23q258 -423 258 -905q0 -483 -258 -906z" />
<glyph unicode="*" horiz-adv-x="675" d="M84 1001l217 111l-217 111l31 53l204 -133l-12 243h62l-13 -243l205 133l31 -53l-217 -111l217 -111l-31 -53l-205 133l13 -243h-62l12 243l-204 -133z" />
<glyph unicode="+" horiz-adv-x="1011" d="M59 659v62h414v442h66v-442h413v-62h-413v-454h-66v454h-414z" />
<glyph unicode="," d="M119 -205q49 38 78 89q30 53 30 100q-3 0 -5.5 -0.5t-4.5 -1t-3.5 -0.5h-2.5q-29 0 -47 19q-19 21 -19 48q0 25 19 46q18 20 47 20q34 0 57 -29t23 -80q0 -71 -38 -141q-39 -71 -89 -107z" />
<glyph unicode="-" horiz-adv-x="614" d="M61 465v61h492v-61h-492z" />
<glyph unicode="." d="M145 49q0 26 20 46t48 20t48 -20t20 -46q0 -27 -20 -47t-48 -20t-48 20t-20 47z" />
<glyph unicode="/" horiz-adv-x="548" d="M0 -41l485 1448h64l-486 -1448h-63z" />
<glyph unicode="0" horiz-adv-x="1239" d="M133 682q0 103 16 196q17 100 53 189q38 93 91 163q52 68 139 113q83 43 189 43q104 0 187 -43q84 -44 139 -113q55 -70 91 -163q35 -91 52 -189q16 -93 16 -196q0 -99 -15 -195t-53 -190q-40 -99 -91 -164q-56 -71 -139 -114q-85 -44 -187 -44q-104 0 -189 44 q-86 44 -139 114q-53 69 -91 164q-35 88 -53 190q-16 93 -16 195zM205 682q0 -94 13 -178q14 -90 43 -173q30 -84 77 -150q45 -62 119 -104q71 -40 164 -40q91 0 162 40q74 42 119 104q46 63 76 150q29 83 43 173q13 84 13 178q0 92 -12 179q-11 83 -43 173q-29 84 -76 149 q-45 63 -119 103q-72 39 -163 39q-92 0 -164 -39t-119 -103t-77 -149q-29 -83 -43 -173q-13 -84 -13 -179z" />
<glyph unicode="1" horiz-adv-x="567" d="M61 1083l265 283h61v-1366h-65v1272l-216 -236z" />
<glyph unicode="2" horiz-adv-x="1181" d="M121 0v57q33 28 81.5 68.5t61.5 51.5q38 32 132 113q72 62 125 112q32 30 109 107q62 62 98 107q26 33 76 101q39 54 61 102t35 98q13 49 13 99q0 82 -29 141q-29 60 -80 97q-46 34 -109 53q-59 18 -122 18q-126 0 -224 -50t-152 -134l-54 39q65 95 178 151 q111 55 254 55q55 0 110 -12q54 -12 108 -41q56 -30 94 -70q42 -43 66 -105q26 -66 26 -142q0 -79 -25 -155q-25 -77 -86 -162q-60 -84 -114 -150q-52 -64 -162 -163q-146 -132 -174 -156q-58 -50 -201 -169h766v-61h-862z" />
<glyph unicode="3" horiz-adv-x="1087" d="M74 205l57 33q58 -91 154 -146q97 -55 231 -55q170 0 270 87q101 87 101 238q0 66 -21 119q-21 52 -58 88q-40 38 -88 61q-53 25 -107 35q-60 11 -121 11q-87 0 -115 -2v65q28 -2 115 -2q71 0 139 17q64 16 119 51q53 34 85 93q31 58 31 132q0 136 -102 216 q-101 79 -248 79q-119 0 -206 -45q-89 -46 -167 -139l-51 41q71 90 181 148q106 56 243 56q85 0 155 -23q76 -25 133 -67q58 -43 93 -113t35 -153q0 -64 -21 -117t-51 -87q-31 -36 -71 -61q-41 -26 -76 -39q-34 -13 -72 -19q46 -4 97 -27t100 -61q49 -39 82 -106 q32 -65 32 -151q0 -171 -116 -279t-320 -108q-152 0 -268 65q-114 64 -174 165z" />
<glyph unicode="4" horiz-adv-x="1073" d="M78 399v68l624 899h86v-905h207v-62h-207v-399h-65v399h-645zM150 461h573v831z" />
<glyph unicode="5" horiz-adv-x="1175" d="M166 205l53 39q70 -105 161 -155q95 -52 228 -52q156 0 263 105q106 105 106 264q0 169 -104 271q-102 101 -265 101q-194 0 -344 -141l-55 33v696h745v-61h-680v-596q56 55 145 93q88 38 189 38q116 0 214 -48q97 -48 158 -148q62 -101 62 -238q0 -100 -35 -180 t-97 -136q-60 -54 -138 -84q-81 -31 -164 -31q-160 0 -266 59q-104 58 -176 171z" />
<glyph unicode="6" horiz-adv-x="1181" d="M133 682q0 103 15 201q15 97 51 190q35 92 91 161q56 70 139 111t192 41q130 0 212 -47t146 -137l-49 -43q-55 78 -127 123q-70 43 -182 43q-93 0 -167 -39q-75 -40 -121 -104q-50 -69 -78 -152q-31 -91 -44 -179q-12 -80 -12 -189q0 -42 2 -74q22 36 62 78q38 39 92 78 q56 40 122 63q69 24 139 24q192 0 313 -110q120 -110 120 -320q0 -76 -30 -155q-28 -73 -83 -136q-53 -60 -139 -98q-84 -37 -189 -37q-100 0 -185 40q-83 39 -135 105q-53 67 -89 158q-36 92 -51 192t-15 212zM209 504q6 -69 22 -127q17 -63 48 -125q33 -66 74 -110 q45 -49 109 -76q67 -29 146 -29q94 0 166 34q73 34 118 88q46 55 68 117q23 64 23 125q0 181 -100 275t-269 94q-120 0 -232 -74q-109 -72 -173 -192z" />
<glyph unicode="7" horiz-adv-x="1001" d="M74 1305v61h854v-45l-604 -1321h-74l600 1305h-776z" />
<glyph unicode="8" horiz-adv-x="1148" d="M135 338q0 71 30 134q29 61 82 108q50 44 112 76q60 31 130 49q-64 15 -121 42q-56 26 -105 68t-77 97q-28 56 -28 124q0 86 36 155q35 67 96 110q57 40 133 63q72 22 152 22q81 0 151 -22q78 -24 133 -63q60 -42 97 -110t37 -155q0 -68 -28 -124q-28 -55 -77 -97 t-105 -68q-57 -27 -121 -42q68 -18 129 -49q62 -32 112 -76q51 -45 81 -108t30 -134q0 -158 -124 -260q-126 -103 -315 -103q-193 0 -316 102q-124 103 -124 261zM201 338q0 -93 53 -161t139 -105q82 -35 182 -35q150 0 262 83q111 83 111 218q0 68 -31 124q-31 57 -76 94 q-42 35 -100 64q-53 27 -95 39q-43 13 -71 17q-24 -4 -71 -17q-42 -12 -96 -39q-58 -29 -100 -64q-45 -37 -76 -94q-31 -56 -31 -124zM223 1036q0 -63 30 -114q31 -53 70 -82q47 -34 94 -55q57 -25 89 -33q46 -12 69 -17q29 6 70 17q35 9 90 33q51 22 94 55q38 29 69 82 q30 51 30 114q0 133 -102 211t-251 78q-148 0 -250 -78t-102 -211z" />
<glyph unicode="9" horiz-adv-x="1181" d="M133 963q0 79 29 155q28 73 83 136q52 60 140 98q84 37 188 37q101 0 186 -40q83 -39 135 -105q53 -67 89 -158q36 -92 51 -192q15 -101 15 -212q0 -104 -15 -201t-51 -190q-35 -92 -91 -161q-56 -70 -139 -111q-85 -42 -192 -42q-128 0 -212 48q-82 47 -146 137l49 43 q56 -79 126 -123q70 -43 183 -43q93 0 167 39q75 40 121 104q50 69 78 152q29 85 43 179q13 87 13 189q0 42 -2 74q-22 -36 -62 -78q-38 -39 -92 -78q-56 -40 -122 -63q-72 -25 -140 -25q-191 0 -313 111q-119 109 -119 320zM199 963q0 -181 100 -275t268 -94q120 0 232 74 q111 74 174 192q-6 69 -22 127q-17 63 -48 125q-32 64 -75 110q-45 49 -109 76q-67 29 -146 29q-93 0 -165 -34q-75 -35 -119 -88t-67 -117t-23 -125z" />
<glyph unicode=":" d="M145 49q0 26 20 46t48 20t48 -20t20 -46q0 -27 -20 -47t-48 -20t-48 20t-20 47zM145 938q0 26 20 46t48 20t48 -20t20 -46q0 -28 -20 -48t-48 -20t-48 20t-20 48z" />
<glyph unicode=";" d="M119 -205q49 38 78 89q30 53 30 100q-3 0 -5.5 -0.5t-4.5 -1t-3.5 -0.5h-2.5q-29 0 -47 19q-19 21 -19 48q0 25 19 46q18 20 47 20q34 0 57 -29t23 -80q0 -71 -38 -141q-39 -71 -89 -107zM145 938q0 26 20 46t48 20t48 -20t20 -46q0 -28 -20 -48t-48 -20t-48 20t-20 48z " />
<glyph unicode="&#x3c;" horiz-adv-x="1011" d="M59 664v43l893 481v-74l-809 -430l809 -426v-74z" />
<glyph unicode="=" horiz-adv-x="1011" d="M59 451v61h893v-61h-893zM59 856v62h893v-62h-893z" />
<glyph unicode="&#x3e;" horiz-adv-x="1011" d="M59 184v74l809 426l-809 430v74l893 -481v-43z" />
<glyph unicode="?" horiz-adv-x="956" d="M53 1167q153 219 439 219q174 0 277 -91t103 -222q0 -63 -24 -119q-24 -55 -63 -94q-39 -40 -86 -74q-36 -27 -94 -66q-57 -39 -86 -62q-39 -32 -63 -72t-24 -86q0 -25 18 -56q18 -32 50 -53l-39 -47q-90 68 -90 156q0 58 23 103q25 48 62 82q42 38 84 67q40 27 92 64 q49 35 84 67q37 34 61 84q24 49 24 106q0 107 -83 179q-84 73 -226 73q-141 0 -231 -51q-91 -51 -161 -150zM387 49q0 26 20 46t48 20q27 0 47 -20t20 -46q0 -27 -20 -47t-47 -20q-28 0 -48 20t-20 47z" />
<glyph unicode="@" horiz-adv-x="1603" d="M72 500q0 218 114 405q113 186 301 294q187 108 398 108q187 0 336 -89q146 -87 228 -242q81 -153 81 -339q0 -216 -89 -340q-89 -123 -220 -123q-80 0 -128 53q-49 54 -49 127v13q-58 -82 -152 -138q-92 -55 -198 -55q-140 0 -225 88q-86 89 -86 236q0 109 43 207 q42 96 114 168q70 70 159 110q91 41 182 41q100 0 169 -51t99 -127l29 141h61l-127 -602q-2 -16 -2 -37q0 -54 32 -86q33 -33 79 -33q25 0 56 11q29 10 66 41t63 73q28 45 46 119t18 166q0 170 -74 309q-73 137 -210 218q-134 79 -307 79q-150 0 -287 -62 q-136 -61 -238 -165q-100 -101 -160 -238q-61 -139 -61 -278q0 -165 76 -298q77 -135 213 -211q137 -77 307 -77q199 0 385 117l33 -47q-199 -129 -426 -129q-138 0 -258 49q-118 48 -206 136q-87 86 -136 205q-49 117 -49 253zM451 498q0 -118 65 -194q64 -75 178 -75 t210 67q97 68 159 161l70 321q-23 74 -87 132q-65 59 -165 59q-115 0 -216 -68q-98 -66 -157 -177q-57 -108 -57 -226z" />
<glyph unicode="A" horiz-adv-x="1302" d="M43 0l569 1366h78l570 -1366h-76l-152 367h-762l-151 -367h-76zM295 428h713l-357 862z" />
<glyph unicode="B" horiz-adv-x="1228" d="M180 0v1366h514q168 0 271 -92q102 -92 102 -256q0 -124 -72 -209q-71 -84 -170 -104q110 -17 189 -117q80 -101 80 -219q0 -175 -105 -272q-104 -97 -287 -97h-522zM246 61h456q149 0 235 83q85 82 85 223q0 81 -34 148q-34 66 -109 112q-74 45 -177 45h-456v-611z M246 733h448q145 0 223 81t78 204q0 122 -78 205q-78 82 -223 82h-448v-572z" />
<glyph unicode="C" horiz-adv-x="1366" d="M133 682q0 154 53 287q52 130 146 224q93 93 217 144q127 52 266 52q289 0 475 -215l-51 -46q-74 94 -185 146q-114 53 -239 53t-239 -47q-110 -45 -194 -131q-83 -84 -130 -204q-47 -119 -47 -263q0 -142 47 -261q48 -121 129 -205t194 -132q110 -47 240 -47 q125 0 239 53q111 52 185 146l53 -43q-192 -218 -477 -218q-139 0 -266 52q-125 51 -217 143q-94 94 -146 225q-53 133 -53 287z" />
<glyph unicode="D" horiz-adv-x="1400" d="M180 0v1366h406q154 0 284 -56t215 -150q89 -99 134 -217q47 -124 47 -261q0 -136 -47 -262q-45 -120 -134 -217q-84 -92 -215 -148q-128 -55 -284 -55h-406zM246 61h340q139 0 257 49q117 49 193 132q76 84 117 197q41 114 41 243q0 174 -70 313q-71 140 -211 225 t-327 85h-340v-1244z" />
<glyph unicode="E" horiz-adv-x="1142" d="M180 0v1366h836v-61h-770v-572h755v-61h-755v-611h770v-61h-836z" />
<glyph unicode="F" horiz-adv-x="1091" d="M180 0v1366h836v-61h-770v-572h755v-61h-755v-672h-66z" />
<glyph unicode="G" horiz-adv-x="1449" d="M133 682q0 154 53 287q52 130 146 224q93 93 217 144q127 52 266 52q295 0 500 -211l-43 -45q-80 91 -201 142q-122 52 -256 52q-125 0 -239 -47q-110 -45 -194 -131q-83 -84 -130 -204q-47 -119 -47 -263q0 -143 47 -262q48 -121 129 -205t194 -132t240 -48 q139 0 250 55q114 56 184 129v375h-563v61h629v-462q-91 -103 -220 -161q-132 -59 -280 -59q-140 0 -266 53q-128 54 -217 143q-95 95 -146 225q-53 135 -53 288z" />
<glyph unicode="H" horiz-adv-x="1423" d="M180 0v1366h66v-633h932v633h65v-1366h-65v672h-932v-672h-66z" />
<glyph unicode="I" d="M180 0v1366h66v-1366h-66z" />
<glyph unicode="J" horiz-adv-x="952" d="M33 154l55 49q117 -166 291 -166q150 0 239 95t89 247v987h65v-987q0 -99 -32 -178t-86 -127q-53 -47 -124 -73q-72 -26 -151 -26q-114 0 -197 43q-81 42 -149 136z" />
<glyph unicode="K" horiz-adv-x="1169" d="M180 0v1366h66v-788l710 788h88l-593 -653l655 -713h-88l-608 672l-164 -178v-494h-66z" />
<glyph unicode="L" horiz-adv-x="1021" d="M180 0v1366h66v-1305h686v-61h-752z" />
<glyph unicode="M" horiz-adv-x="1576" d="M180 0v1366h105l503 -1223l504 1223h105v-1366h-66v1288l-532 -1288h-21l-532 1288v-1288h-66z" />
<glyph unicode="N" horiz-adv-x="1413" d="M180 0v1366h66l921 -1247v1247h66v-1366h-66l-921 1260v-1260h-66z" />
<glyph unicode="O" horiz-adv-x="1564" d="M133 682q0 149 46 277q47 132 129 225q82 94 206 150q122 55 268 55q194 0 343 -95t228 -254t79 -358t-79 -358t-228 -254t-343 -95q-146 0 -268 55q-124 56 -206 150q-82 93 -129 225q-46 128 -46 277zM205 682q0 -186 69 -331t202 -230q132 -84 306 -84q172 0 304 84 q133 85 203 230q71 148 71 331q0 284 -159 464q-160 181 -419 181q-262 0 -420 -180q-157 -179 -157 -465z" />
<glyph unicode="P" horiz-adv-x="1136" d="M180 0v1366h473q123 0 215 -54q93 -55 139 -141t46 -192q0 -163 -109 -275t-291 -112h-407v-592h-66zM246 653h405q149 0 239 91q91 93 91 235q0 141 -91 234q-90 92 -239 92h-405v-652z" />
<glyph unicode="Q" horiz-adv-x="1564" d="M133 682q0 149 46 277q47 132 129 225q82 94 206 150q122 55 268 55q194 0 343 -95t228 -254t79 -358q0 -155 -53 -293q-52 -136 -148 -233l158 -156l-46 -47l-159 160q-171 -138 -402 -138q-146 0 -268 55q-124 56 -206 150q-82 93 -129 225q-46 128 -46 277zM205 682 q0 -186 69 -331t202 -230q132 -84 306 -84q206 0 355 121l-226 227l47 47l228 -229q84 87 129 210t45 269q0 284 -159 464q-160 181 -419 181q-262 0 -420 -180q-157 -179 -157 -465z" />
<glyph unicode="R" horiz-adv-x="1185" d="M180 0v1366h471q174 0 289 -103t115 -284q0 -182 -115 -285q-116 -104 -289 -104l422 -590h-84l-416 590h-327v-590h-66zM246 651h405q148 0 240 92t92 236q0 143 -91 234q-92 92 -241 92h-405v-654z" />
<glyph unicode="S" horiz-adv-x="1177" d="M109 193l53 47q71 -86 180 -145q107 -58 244 -58q90 0 162 20q69 19 113 51q41 30 71 74q29 42 39 82q10 39 10 82q0 72 -28 127q-28 54 -76 89q-48 34 -111 60q-74 30 -131 46l-137 39q-69 20 -131 46q-63 27 -111 63q-47 35 -76 93q-28 56 -28 131q0 107 60 188 q59 80 157 121q95 40 211 40q285 0 442 -193l-51 -47q-136 178 -391 178q-150 0 -254 -81q-103 -81 -103 -206q0 -56 23 -100q22 -44 63 -72q43 -30 93 -53q49 -22 113 -40q69 -19 123 -37q3 -1 123 -40q59 -19 112 -51q57 -34 94 -70q40 -39 63 -98q23 -60 23 -133 q0 -52 -13 -98q-14 -50 -46 -98q-36 -53 -84 -89q-52 -38 -135 -62q-84 -24 -189 -24q-154 0 -277 60t-200 158z" />
<glyph unicode="T" horiz-adv-x="1144" d="M78 1305v61h989v-61h-463v-1305h-65v1305h-461z" />
<glyph unicode="U" horiz-adv-x="1376" d="M180 518v848h66v-848q0 -229 114 -355t328 -126t328 126t114 355v848h66v-848q0 -257 -131 -400t-377 -143t-377 144q-131 145 -131 399z" />
<glyph unicode="V" horiz-adv-x="1302" d="M43 1366h76l532 -1290l533 1290h76l-570 -1366h-78z" />
<glyph unicode="W" horiz-adv-x="1744" d="M51 1366h72l356 -1268l359 1268h69l359 -1268l356 1268h72l-389 -1366h-78l-355 1243l-354 -1243h-78z" />
<glyph unicode="X" horiz-adv-x="1306" d="M51 0l565 700l-534 666h88l483 -612l484 612h88l-535 -664l565 -702h-86l-516 651l-516 -651h-86z" />
<glyph unicode="Y" horiz-adv-x="1249" d="M43 1366h84l498 -709l497 709h84l-549 -774v-592h-65v592z" />
<glyph unicode="Z" horiz-adv-x="1183" d="M109 0v61l874 1244h-874v61h952v-61l-877 -1244h891v-61h-966z" />
<glyph unicode="[" horiz-adv-x="434" d="M70 -389v1778h329v-62h-268v-1655h268v-61h-329z" />
<glyph unicode="\" horiz-adv-x="548" d="M0 1407h63l486 -1448h-64z" />
<glyph unicode="]" horiz-adv-x="434" d="M35 -328h268v1655h-268v62h330v-1778h-330v61z" />
<glyph unicode="^" horiz-adv-x="868" d="M39 682l369 684h53l368 -684h-69l-326 629l-325 -629h-70z" />
<glyph unicode="_" horiz-adv-x="1155" d="M-6 -82h1167v-61h-1167v61z" />
<glyph unicode="`" horiz-adv-x="419" d="M0 1434h92l328 -295h-62z" />
<glyph unicode="a" horiz-adv-x="1052" d="M127 305q0 150 103 240q104 90 243 90q208 0 342 -146v224q0 115 -80 180t-198 65q-100 0 -173 -36q-77 -38 -145 -119l-47 41q75 88 159 129q85 41 206 41q152 0 246 -77t94 -222v-715h-62v121q-134 -146 -342 -146q-139 0 -243 90q-103 90 -103 240zM195 305 q0 -118 81 -196t213 -78q99 0 185 39t141 112v246q-56 74 -141 113q-86 39 -185 39q-131 0 -213 -79q-81 -78 -81 -196z" />
<glyph unicode="b" horiz-adv-x="1159" d="M176 0v1366h62v-547q62 91 154 143t202 52q200 0 321 -144q121 -143 121 -376q0 -235 -121 -377t-321 -142q-111 0 -207 55t-149 136v-166h-62zM238 227q48 -82 147 -139t209 -57q176 0 275 130q100 132 100 333q0 130 -43 236q-41 102 -128 166q-84 62 -204 62 q-111 0 -209 -58q-96 -57 -147 -142v-531z" />
<glyph unicode="c" horiz-adv-x="1009" d="M123 496q0 106 33 201t93 165q61 72 147 111q90 41 194 41q114 0 193 -41q76 -40 145 -125l-45 -37q-108 147 -289 147q-185 0 -294 -131q-110 -133 -110 -331q0 -200 110 -333q110 -132 294 -132q180 0 289 149l45 -39q-69 -85 -145 -125q-79 -41 -193 -41 q-105 0 -193 42t-148 112q-60 71 -93 165t-33 202z" />
<glyph unicode="d" horiz-adv-x="1159" d="M123 494q0 233 121 376q122 144 321 144q110 0 202 -52q93 -53 155 -143v547h61v-1366h-61v166q-53 -80 -150 -136q-96 -55 -207 -55q-200 0 -321 142t-121 377zM190 494q0 -201 100 -333q99 -130 275 -130q111 0 210 57t147 139v531q-51 85 -148 142q-98 58 -209 58 q-120 0 -204 -62q-87 -64 -128 -166q-43 -106 -43 -236z" />
<glyph unicode="e" horiz-adv-x="1169" d="M123 496q0 216 134 367t331 151q110 0 199 -42t144 -114q56 -73 86 -165q30 -93 30 -197v-21h-854q5 -188 118 -316t297 -128q204 0 344 149l37 -39q-79 -82 -170 -124t-211 -42q-214 0 -349 147q-136 148 -136 374zM193 530h788q0 71 -25 148q-24 72 -71 138 q-46 64 -124 103t-175 39q-92 0 -167 -38q-74 -38 -124 -103q-45 -59 -74 -138q-26 -72 -28 -149z" />
<glyph unicode="f" horiz-adv-x="503" d="M41 934v55h164v105q0 138 65 215t183 77q50 0 86 -12q39 -13 82 -49l-37 -49q-58 55 -131 55q-93 0 -140 -62t-47 -175v-105h201v-55h-201v-934h-61v934h-164z" />
<glyph unicode="g" horiz-adv-x="1159" d="M123 492q0 235 121 378q122 144 321 144q110 0 202 -52q93 -53 155 -143v170h61v-995q0 -201 -113 -299q-111 -96 -305 -96q-132 0 -213 31q-85 32 -166 118l45 51q64 -79 141 -112q76 -33 193 -33q158 0 257 84q100 85 100 256v172q-55 -84 -150 -139q-97 -56 -207 -56 q-199 0 -321 143q-121 142 -121 378zM190 492q0 -131 43 -237q41 -102 128 -166q84 -62 204 -62q109 0 209 59q98 58 148 141v531q-51 85 -148 142q-98 58 -209 58q-175 0 -275 -132q-100 -131 -100 -334z" />
<glyph unicode="h" horiz-adv-x="1081" d="M176 0v1366h62v-532q60 72 160 126t198 54q153 0 231 -75t78 -245v-694h-61v694q0 148 -66 206q-65 58 -190 58q-101 0 -197 -54q-99 -56 -153 -132v-772h-62z" />
<glyph unicode="i" horiz-adv-x="413" d="M147 1219q0 24 18 42q17 17 42 17t42 -17t17 -42t-17 -42q-18 -18 -42 -18t-42 18t-18 42zM176 0v989h62v-989h-62z" />
<glyph unicode="j" horiz-adv-x="413" d="M-195 -324l39 52q66 -74 150 -74q82 0 132 47t50 143v1145h62v-1145q0 -123 -64 -184t-180 -61q-106 0 -189 77zM147 1219q0 24 18 42q17 17 42 17t42 -17t17 -42t-17 -42q-18 -18 -42 -18t-42 18t-18 42z" />
<glyph unicode="k" horiz-adv-x="1015" d="M176 0v1366h62v-979l645 602h88l-482 -446l476 -543h-88l-435 498l-204 -189v-309h-62z" />
<glyph unicode="l" horiz-adv-x="413" d="M176 0v1366h62v-1366h-62z" />
<glyph unicode="m" horiz-adv-x="1576" d="M176 0v989h62v-155q38 60 129 120t188 60q109 0 174 -56q64 -55 82 -133q45 75 137 132t189 57q264 0 264 -301v-713h-62v713q0 245 -213 245q-81 0 -171 -54t-136 -130v-774h-61v713q0 245 -213 245q-83 0 -169 -54q-88 -56 -138 -132v-772h-62z" />
<glyph unicode="n" horiz-adv-x="1081" d="M176 0v989h62v-155q60 72 160 126t198 54q152 0 231 -77q78 -77 78 -247v-690h-61v690q0 148 -66 208t-190 60q-101 0 -197 -54q-99 -56 -153 -132v-772h-62z" />
<glyph unicode="o" horiz-adv-x="1167" d="M123 496q0 147 56 262q58 119 163 187q106 69 242 69t243 -69q106 -69 162 -187q55 -116 55 -262q0 -147 -55 -264q-55 -118 -162 -187q-108 -70 -243 -70q-205 0 -333 149t-128 372zM190 496q0 -123 45 -228q45 -106 136 -171q91 -66 213 -66q93 0 168 38t124 104 q51 68 75 148q26 86 26 175t-26 173q-25 81 -75 148q-48 64 -124 103q-75 38 -168 38q-122 0 -213 -66q-90 -65 -136 -171q-45 -103 -45 -225z" />
<glyph unicode="p" horiz-adv-x="1150" d="M176 -377v1366h62v-166q53 81 149 136t207 55q200 0 321 -142t121 -376t-121 -377q-121 -144 -321 -144q-108 0 -202 53q-93 52 -154 142v-547h-62zM238 231q50 -84 147 -141q100 -59 209 -59q120 0 204 62q86 63 128 167q43 106 43 236q0 200 -100 332q-99 130 -275 130 q-110 0 -209 -57t-147 -139v-531z" />
<glyph unicode="q" horiz-adv-x="1150" d="M115 496q0 234 121 376t321 142q111 0 207 -55t149 -136v166h62v-1366h-62v547q-61 -90 -154 -142q-94 -53 -202 -53q-199 0 -321 144q-121 143 -121 377zM182 496q0 -130 43 -236q42 -104 128 -167q84 -62 204 -62q109 0 209 59q97 57 147 141v531q-48 82 -147 139 t-209 57q-176 0 -275 -130q-100 -132 -100 -332z" />
<glyph unicode="r" horiz-adv-x="622" d="M176 0v989h62v-180q151 199 340 199v-74q-24 2 -50 2q-75 0 -166 -62q-89 -60 -124 -133v-741h-62z" />
<glyph unicode="s" horiz-adv-x="929" d="M90 133l49 45q50 -67 130 -107t184 -40q134 0 213 64t79 165q0 63 -34 104q-35 42 -91 66q-58 24 -124 42q-103 27 -136 37q-61 18 -123 47q-58 28 -92 76q-34 49 -34 120q0 112 90 187t245 75q224 0 340 -150l-45 -41q-43 63 -120 99t-175 36q-127 0 -200 -58 q-74 -59 -74 -148q0 -54 35 -94q33 -38 91 -59q62 -23 124 -38q60 -15 135 -38q69 -21 124 -49q55 -27 91 -84q35 -55 35 -130q0 -123 -92 -204q-91 -81 -262 -81q-120 0 -204 37q-89 39 -159 121z" />
<glyph unicode="t" horiz-adv-x="524" d="M25 934v55h163v271h62v-271h201v-55h-201v-760q0 -66 26 -104q27 -39 80 -39q70 0 117 53l37 -47q-65 -62 -154 -62q-84 0 -126 53q-42 52 -42 146v760h-163z" />
<glyph unicode="u" horiz-adv-x="1081" d="M176 295v694h62v-694q0 -147 65 -205q67 -59 191 -59q100 0 198 52q101 53 152 128v778h61v-989h-61v152q-67 -76 -164 -126q-99 -51 -195 -51q-153 0 -231 75t-78 245z" />
<glyph unicode="v" horiz-adv-x="964" d="M23 989h71l389 -917l387 917h72l-424 -989h-72z" />
<glyph unicode="w" horiz-adv-x="1441" d="M45 989h68l286 -893l297 893h49l297 -893l287 893h68l-328 -989h-49l-299 897l-299 -897h-49z" />
<glyph unicode="x" horiz-adv-x="966" d="M45 0l404 508l-381 481h79l336 -438l336 438h80l-381 -481l404 -508h-80l-359 467l-358 -467h-80z" />
<glyph unicode="y" horiz-adv-x="964" d="M23 989h71l389 -917l387 917h72l-524 -1222q-75 -168 -217 -168q-58 0 -99 14l13 57q35 -16 86 -16q50 0 87 29q34 27 68 106l90 205z" />
<glyph unicode="z" horiz-adv-x="954" d="M123 0v55l629 879h-629v55h700v-55l-633 -879h641v-55h-708z" />
<glyph unicode="{" horiz-adv-x="485" d="M14 469v61q52 0 79 43q28 45 28 105v479q0 99 62 166q61 66 141 66h127v-62h-127q-57 0 -100 -49q-42 -48 -42 -121v-479q0 -139 -92 -178q92 -39 92 -178v-480q0 -72 42 -121t100 -49h127v-61h-127q-80 0 -141 65q-62 67 -62 166v480q0 59 -28 104q-27 43 -79 43z" />
<glyph unicode="|" horiz-adv-x="421" d="M180 -41v1448h62v-1448h-62z" />
<glyph unicode="}" horiz-adv-x="485" d="M35 -328h127q57 0 99 49t42 121v480q0 139 92 178q-92 39 -92 178v479q0 74 -41 121q-43 49 -100 49h-127v62h127q80 0 141 -66q62 -67 62 -166v-479q0 -62 27 -105t79 -43v-61q-52 0 -79 -43q-27 -44 -27 -104v-480q0 -99 -62 -166q-61 -65 -141 -65h-127v61z" />
<glyph unicode="~" horiz-adv-x="1015" d="M57 893q11 102 27 180q16 76 47 147q29 67 78 105q47 37 113 37q68 0 114 -43t70 -104q35 -89 46 -122q20 -59 56 -104q34 -43 86 -43q86 0 134 104q48 103 69 316l61 -6q-11 -104 -27 -181q-16 -75 -46 -148q-28 -68 -78 -107q-47 -37 -113 -37q-68 0 -114 42 q-47 42 -71 104q-27 68 -45 122q-20 60 -56 103q-35 42 -86 42q-86 0 -134 -103t-69 -314z" />
<glyph unicode="&#xa1;" d="M145 942q0 26 20 46t48 20t48 -20t20 -46q0 -28 -20 -48t-48 -20t-48 20t-20 48zM170 -377l23 1036h40l23 -1036h-86z" />
<glyph unicode="&#xa2;" horiz-adv-x="1009" d="M123 496q0 203 113 349t301 165v147h61v-143q109 -1 186 -42q75 -40 144 -124l-45 -37q-108 144 -285 147v-927q176 0 285 149l45 -39q-69 -84 -144 -124q-77 -41 -186 -42v-180h-61v185q-126 14 -221 86t-144 184q-49 111 -49 246zM190 496q0 -184 93 -313t254 -150v921 q-161 -21 -254 -149q-93 -127 -93 -309z" />
<glyph unicode="&#xa3;" horiz-adv-x="1005" d="M35 547v61h293q-18 21 -57 60q-22 22 -62 67q-20 22 -51 69q-26 39 -40 90t-14 107q0 154 121 270q119 115 305 115q114 0 212 -58t147 -154l-53 -37q-29 70 -115 130q-83 58 -191 58q-148 0 -253 -87t-105 -237q0 -58 14 -103q15 -48 41 -88q22 -34 52 -69q9 -11 62 -68 q35 -37 56 -65h312v-61h-273q33 -63 33 -131q0 -104 -46 -172q-48 -72 -130 -133q54 20 113 20q56 0 115 -25q17 -7 35.5 -15.5t40.5 -18.5t34 -15q54 -24 106 -24q67 0 127 28q62 29 86 60l37 -55q-98 -95 -254 -95q-50 0 -92 11q-45 12 -67 24q-49 27 -52 29 q-20 12 -65 24q-41 11 -88 11q-81 0 -244 -84l-29 67q155 66 234 161q78 94 78 202q0 69 -37 131h-336z" />
<glyph unicode="&#xa4;" horiz-adv-x="1181" d="M63 1167l43 43l168 -170q130 119 316 119q187 0 315 -117l166 166l43 -43l-168 -168q105 -131 105 -315q0 -181 -103 -313l166 -166l-43 -43l-164 164q-127 -121 -317 -121q-194 0 -318 121l-163 -164l-43 43l165 166q-102 131 -102 313q0 186 104 315zM197 682 q0 -113 44 -204q46 -95 136 -154q91 -60 213 -60t213 60q92 61 136 154q44 94 44 204q0 109 -44 203q-43 92 -136 153q-91 60 -213 60t-213 -60t-136 -153q-44 -91 -44 -203z" />
<glyph unicode="&#xa5;" horiz-adv-x="1249" d="M43 264v62h549v266h-549v61h504l-504 713h84l498 -709l497 709h84l-506 -713h506v-61h-549v-266h549v-62h-549v-264h-65v264h-549z" />
<glyph unicode="&#xa6;" horiz-adv-x="421" d="M180 -41v647h62v-647h-62zM180 760v647h62v-647h-62z" />
<glyph unicode="&#xa7;" horiz-adv-x="929" d="M90 -8l49 45q112 -148 314 -148q129 0 211 63q81 62 81 167q0 62 -34 103q-35 42 -91 66q-51 22 -124 41q-58 15 -136 38q-61 18 -123 47q-58 28 -92 76q-34 49 -34 120q0 107 73 173q75 67 193 94q-133 37 -199 91q-67 55 -67 156q0 110 87 187q85 75 248 75 q120 0 203 -41q86 -42 137 -108l-45 -41q-50 69 -127 102q-78 33 -168 33q-120 0 -197 -58t-77 -153q0 -56 35 -94q34 -37 91 -58q54 -20 124 -37q45 -11 135 -37q68 -20 124 -49q57 -30 91 -85q35 -56 35 -133q0 -181 -205 -260q100 -37 153 -96q52 -58 52 -152 q0 -133 -97 -209t-257 -76q-94 0 -166 24q-71 24 -112 54q-42 31 -85 80zM172 606q0 -94 114 -146q58 -27 202 -62q9 -2 24 -5.5t20 -5.5q108 48 160 103q53 56 53 143q0 36 -10 63q-11 29 -35 50q-30 26 -46 38q-23 17 -61 30q-47 16 -63 21q-9 3 -32 9.5t-35 9.5 q-162 -42 -226 -102q-65 -60 -65 -146z" />
<glyph unicode="&#xa8;" horiz-adv-x="516" d="M-8 1227q0 24 18 42q17 17 41 17q25 0 42 -17q18 -18 18 -42t-18 -42t-42 -18q-23 0 -41 18t-18 42zM406 1227q0 25 17 42t42 17t42 -17t17 -42t-17 -42q-18 -18 -42 -18t-42 18q-17 17 -17 42z" />
<glyph unicode="&#xa9;" horiz-adv-x="1593" d="M90 684q0 147 56 275q57 131 151 225q96 96 226 151q132 56 274 56q143 0 275 -56q129 -55 225 -151q95 -94 150 -225q56 -132 56 -275q0 -142 -56 -274q-55 -130 -150 -225q-94 -94 -225 -151q-130 -57 -275 -57q-143 0 -274 57q-133 58 -226 151q-94 94 -151 225 q-56 128 -56 274zM143 684q0 -178 88 -327t239 -238q149 -88 327 -88t327 88q152 90 238 238q88 152 88 327q0 176 -88 328q-87 151 -238 238q-150 87 -327 87t-327 -87t-239 -238q-88 -149 -88 -328zM371 688q0 187 124 312q125 126 302 126q184 0 295 -131l-41 -41 q-40 54 -110 85q-72 32 -144 32q-149 0 -258 -108t-109 -277q0 -164 110 -276q110 -111 257 -111q73 0 144 33q68 32 110 86l41 -41q-114 -133 -295 -133q-177 0 -302 129q-124 128 -124 315z" />
<glyph unicode="&#xaa;" horiz-adv-x="761" d="M102 866q0 99 69 156t163 57q140 0 231 -94v139q0 72 -55 112t-129 40q-131 0 -211 -102l-37 38q49 58 110 87q59 28 140 28q105 0 171 -51q67 -52 67 -152v-456h-56v77q-91 -94 -231 -94q-92 0 -162 59t-70 156zM162 866q0 -74 53 -122t137 -48q136 0 213 95v149 q-76 94 -213 94q-84 0 -137 -48t-53 -120z" />
<glyph unicode="&#xab;" horiz-adv-x="745" d="M61 498l328 362h80l-328 -362l328 -369h-80zM276 498l328 362h80l-328 -362l328 -369h-80z" />
<glyph unicode="&#xac;" horiz-adv-x="1011" d="M59 856v62h893v-467h-65v405h-828z" />
<glyph unicode="&#xad;" horiz-adv-x="614" d="M61 465v61h492v-61h-492z" />
<glyph unicode="&#xae;" horiz-adv-x="1011" d="M72 952q0 182 127 308q128 126 307 126q182 0 308 -126t126 -308q0 -180 -126 -307t-308 -127q-117 0 -218 59q-100 58 -158 158t-58 217zM125 952q0 -154 112 -268q111 -113 269 -113t269 113q112 114 112 268q0 160 -111 271q-110 110 -270 110t-270 -110 q-111 -111 -111 -271zM342 702v498h203q65 0 108 -42t43 -109q0 -73 -46 -110q-47 -38 -81 -38l133 -199h-75l-129 197h-97v-197h-59zM401 956h144q32 0 62 28q28 27 28 65q0 40 -28 68t-62 28h-144v-189z" />
<glyph unicode="&#xaf;" horiz-adv-x="743" d="M0 1190v55h743v-55h-743z" />
<glyph unicode="&#xb0;" horiz-adv-x="559" d="M53 1159q0 95 66 161t160 66t160 -66q67 -67 67 -161q0 -92 -67 -159q-66 -66 -160 -66q-95 0 -160 65q-66 66 -66 160zM115 1159q0 -68 48 -116t116 -48q67 0 116 48t49 116t-49 117t-116 49q-68 0 -116 -49q-48 -50 -48 -117z" />
<glyph unicode="&#xb1;" horiz-adv-x="1011" d="M59 0v61h893v-61h-893zM59 659v62h414v442h66v-442h413v-62h-413v-454h-66v454h-414z" />
<glyph unicode="&#xb2;" horiz-adv-x="778" d="M111 862v49q61 44 159 120q54 41 133 112q64 57 107 111t67 105q25 53 25 103q0 60 -32 103t-76 59t-97 16q-79 0 -138 -29q-61 -30 -95 -79l-41 37q40 57 115 91q76 34 161 34q48 0 91 -13q45 -13 84 -39q40 -26 63 -71q25 -48 25 -107q0 -54 -26 -114q-24 -56 -65 -109 q-40 -53 -103 -111q-61 -57 -123 -106q-50 -40 -144 -109h465v-53h-555z" />
<glyph unicode="&#xb3;" horiz-adv-x="778" d="M102 983l41 35q39 -54 100 -85q64 -32 142 -32q102 0 162 48q59 47 59 132q0 91 -67 134q-70 45 -172 45q-50 0 -74 -3v56q16 -2 74 -2q97 0 162 41t65 125q0 75 -62 119t-149 44q-75 0 -128 -25t-103 -81l-39 37q105 123 272 123q113 0 190 -58q78 -59 78 -157 q0 -47 -18 -85t-48 -59q-29 -20 -59 -33q-27 -11 -57 -16q29 -1 61 -15q33 -14 63 -37q31 -24 52 -64q21 -41 21 -89q0 -104 -76 -168q-77 -65 -207 -65q-99 0 -173 38q-75 38 -110 97z" />
<glyph unicode="&#xb4;" horiz-adv-x="419" d="M0 1139l328 295h92l-359 -295h-61z" />
<glyph unicode="&#xb5;" horiz-adv-x="1110" d="M176 -377v1366h62v-694q0 -268 260 -268q94 0 193 54q100 54 153 130v778h61v-815q0 -65 27 -104t80 -39q26 0 41 4l6 -55q-27 -5 -47 -5q-153 0 -168 177q-67 -77 -158 -126q-96 -51 -188 -51q-195 0 -260 134v-486h-62z" />
<glyph unicode="&#xb6;" horiz-adv-x="919" d="M55 1014q0 145 104 249q103 103 249 103h323v-1571h-61v1510h-201v-1510h-61v867q-146 0 -249 103q-104 104 -104 249z" />
<glyph unicode="&#xb7;" d="M145 502q0 26 20 46q19 19 48 19t48 -19q20 -20 20 -46q0 -28 -20 -48t-48 -20t-48 20t-20 48z" />
<glyph unicode="&#xb8;" horiz-adv-x="391" d="M0 -326l29 56q67 -58 161 -58q60 0 101 27t41 74q0 39 -23 64q-23 24 -67 24q-55 0 -88 -39l-45 26l63 175h61l-53 -142q31 25 78 25q61 0 97 -36t36 -97q0 -69 -57 -112q-58 -44 -144 -44q-59 0 -108 16q-52 17 -82 41z" />
<glyph unicode="&#xb9;" horiz-adv-x="393" d="M41 1499l174 182h55v-819h-61v737l-129 -141z" />
<glyph unicode="&#xba;" horiz-adv-x="829" d="M98 989q0 144 88 241t228 97q143 0 230 -96t87 -242q0 -144 -88 -241t-229 -97q-139 0 -228 98q-88 97 -88 240zM160 989q0 -121 68 -202q69 -82 186 -82q119 0 188 82q70 84 70 202q0 117 -70 201q-69 82 -188 82q-117 0 -186 -82q-68 -81 -68 -201z" />
<glyph unicode="&#xbb;" horiz-adv-x="745" d="M61 129l328 369l-328 362h80l328 -362l-328 -369h-80zM276 129l328 369l-328 362h80l328 -362l-328 -369h-80z" />
<glyph unicode="&#xbc;" horiz-adv-x="1464" d="M41 1184l174 182h55v-819h-61v737l-129 -141zM170 0l872 1366h76l-874 -1366h-74zM782 231v54l381 534h80v-534h127v-54h-127v-231h-59v231h-402zM846 285h338v475z" />
<glyph unicode="&#xbd;" horiz-adv-x="1546" d="M41 1184l174 182h55v-819h-61v737l-129 -141zM170 0l872 1366h76l-874 -1366h-74zM879 0v49q82 60 159 119q45 35 133 113q64 57 107 111t67 105q25 53 25 103q0 60 -32 103q-31 42 -76 58q-46 17 -97 17q-79 0 -138 -29q-61 -30 -95 -79l-41 37q40 57 115 91 q74 33 161 33q51 0 91 -12q45 -13 84 -39q40 -26 63 -71q25 -48 25 -107q0 -55 -26 -115q-24 -56 -65 -109q-38 -49 -103 -110q-61 -57 -123 -106q-50 -40 -144 -109h465v-53h-555z" />
<glyph unicode="&#xbe;" horiz-adv-x="1722" d="M102 668l41 34q39 -54 100 -85q62 -31 142 -31q102 0 162 48q59 47 59 132q0 91 -67 134q-68 44 -172 44q-58 0 -74 -2v55q16 -2 74 -2q97 0 162 41t65 125q0 76 -62 120t-149 44q-73 0 -128 -26t-103 -80l-39 36q105 123 272 123q113 0 190 -58q78 -58 78 -157 q0 -47 -18 -84q-18 -38 -48 -59q-29 -20 -59 -33q-27 -11 -57 -16q27 -1 61 -16q36 -15 63 -36q31 -24 52 -64q21 -41 21 -89q0 -104 -76 -168q-78 -66 -207 -66q-99 0 -173 38t-110 98zM428 0l872 1366h76l-874 -1366h-74zM1040 231v54l381 534h80v-534h127v-54h-127v-231 h-59v231h-402zM1104 285h338v475z" />
<glyph unicode="&#xbf;" horiz-adv-x="800" d="M84 -90q0 64 24 119t63 94t86 74q36 27 94 66q57 39 86 62q39 31 63 72t24 86q0 25 -18 56q-19 33 -49 53l39 47q90 -67 90 -156q0 -57 -24 -103q-25 -49 -61 -82q-42 -38 -84 -67q-40 -27 -92 -64q-49 -35 -84 -67q-38 -35 -62 -84q-23 -47 -23 -106q0 -107 82 -179 q84 -73 227 -73q140 0 230 51q91 51 161 150l47 -43q-153 -219 -438 -219q-174 0 -277 91q-104 92 -104 222zM434 942q0 26 20 46t48 20q27 0 47 -20t20 -46q0 -28 -20 -48t-47 -20q-28 0 -48 20t-20 48z" />
<glyph unicode="&#xc0;" horiz-adv-x="1302" d="M43 0l569 1366h78l570 -1366h-76l-152 367h-762l-151 -367h-76zM295 428h713l-357 862zM336 1776h92l328 -295h-62z" />
<glyph unicode="&#xc1;" horiz-adv-x="1302" d="M43 0l569 1366h78l570 -1366h-76l-152 367h-762l-151 -367h-76zM295 428h713l-357 862zM547 1481l327 295h93l-359 -295h-61z" />
<glyph unicode="&#xc2;" horiz-adv-x="1302" d="M43 0l569 1366h78l570 -1366h-76l-152 367h-762l-151 -367h-76zM295 428h713l-357 862zM414 1481l200 295h74l207 -295h-57l-187 245l-180 -245h-57z" />
<glyph unicode="&#xc3;" horiz-adv-x="1302" d="M43 0l569 1366h78l570 -1366h-76l-152 367h-762l-151 -367h-76zM295 428h713l-357 862zM344 1489q0 115 48 195q48 79 132 79q44 0 77 -24q31 -22 51 -58q14 -24 36 -67q17 -33 42 -58q24 -24 56 -24q55 0 88 55t33 164h54q0 -114 -49 -195q-48 -79 -132 -79 q-43 0 -76 24q-31 22 -51 58q-27 47 -37 67q-17 33 -42 58q-24 24 -56 24q-54 0 -87 -55q-34 -57 -34 -164h-53z" />
<glyph unicode="&#xc4;" horiz-adv-x="1302" d="M43 0l569 1366h78l570 -1366h-76l-152 367h-762l-151 -367h-76zM295 428h713l-357 862zM387 1569q0 24 18 42q17 17 41 17q25 0 42 -17q18 -18 18 -42t-18 -42t-42 -18q-23 0 -41 18t-18 42zM801 1569q0 24 18 42q17 17 41 17q25 0 42 -17q18 -18 18 -42t-18 -42t-42 -18 q-23 0 -41 18t-18 42z" />
<glyph unicode="&#xc5;" horiz-adv-x="1302" d="M43 0l569 1366h78l570 -1366h-76l-152 367h-762l-151 -367h-76zM295 428h713l-357 862zM463 1608q0 78 56 134t134 56q77 0 133 -56t56 -134q0 -79 -56 -135t-133 -56t-134 57q-56 56 -56 134zM512 1608q0 -59 41 -100q42 -42 100 -42q59 0 99 42q41 43 41 100t-41 100 q-40 41 -99 41t-100 -41t-41 -100z" />
<glyph unicode="&#xc6;" horiz-adv-x="1904" d="M43 0l870 1366h859v-61h-771v-572h756v-61h-756v-611h771v-61h-836v367h-586l-231 -367h-76zM385 428h551v862z" />
<glyph unicode="&#xc7;" horiz-adv-x="1366" d="M133 682q0 154 53 287q52 130 146 224q93 93 217 144q127 52 266 52q289 0 475 -215l-51 -46q-74 94 -185 146q-114 53 -239 53t-239 -47q-110 -45 -194 -131q-83 -84 -130 -204q-47 -119 -47 -263q0 -142 47 -261q48 -121 129 -205t194 -132q110 -47 240 -47 q125 0 239 53q111 52 185 146l53 -43q-189 -215 -467 -218l-32 -86q31 25 77 25q61 0 97 -36q37 -37 37 -97q0 -68 -58 -112t-143 -44q-55 0 -108 17t-83 41l29 55q66 -57 162 -57q59 0 100 27t41 73q0 41 -22 64q-22 24 -68 24q-55 0 -88 -39l-45 27l43 120q-131 9 -248 65 q-115 55 -201 146q-84 88 -133 219q-49 130 -49 275z" />
<glyph unicode="&#xc8;" horiz-adv-x="1142" d="M180 0v1366h836v-61h-770v-572h755v-61h-755v-611h770v-61h-836zM283 1776h92l327 -295h-61z" />
<glyph unicode="&#xc9;" horiz-adv-x="1142" d="M180 0v1366h836v-61h-770v-572h755v-61h-755v-611h770v-61h-836zM494 1481l327 295h92l-358 -295h-61z" />
<glyph unicode="&#xca;" horiz-adv-x="1142" d="M180 0v1366h836v-61h-770v-572h755v-61h-755v-611h770v-61h-836zM354 1481l201 295h74l207 -295h-58l-186 245l-180 -245h-58z" />
<glyph unicode="&#xcb;" horiz-adv-x="1142" d="M180 0v1366h836v-61h-770v-572h755v-61h-755v-611h770v-61h-836zM328 1569q0 24 18 42q17 17 41 17q25 0 42 -17t17 -42t-17 -42q-18 -18 -42 -18q-23 0 -41 18t-18 42zM741 1569q0 24 18 42q17 17 42 17t42 -17t17 -42t-17 -42q-18 -18 -42 -18t-42 18t-18 42z" />
<glyph unicode="&#xcc;" d="M-102 1776h92l327 -295h-61zM180 0v1366h66v-1366h-66z" />
<glyph unicode="&#xcd;" d="M109 1481l327 295h92l-358 -295h-61zM180 0v1366h66v-1366h-66z" />
<glyph unicode="&#xce;" d="M-25 1481l201 295h74l207 -295h-58l-186 245l-180 -245h-58zM180 0v1366h66v-1366h-66z" />
<glyph unicode="&#xcf;" d="M-51 1567q0 23 17 40t40 17t40 -17t17 -40t-17 -40q-18 -18 -40 -18t-40 18q-17 17 -17 40zM180 0v1366h66v-1366h-66zM362 1567q0 22 18 40q17 17 40 17t40 -17t17 -40t-17 -40q-18 -18 -40 -18t-40 18t-18 40z" />
<glyph unicode="&#xd0;" horiz-adv-x="1464" d="M25 651v62h219v653h405q154 0 284 -56q131 -57 216 -150q88 -97 133 -217q47 -124 47 -261q0 -136 -47 -262q-46 -122 -133 -217q-84 -91 -216 -148q-128 -55 -284 -55h-405v651h-219zM309 61h340q140 0 258 49q115 48 192 132q78 85 118 197q40 111 40 243 q0 174 -70 313q-71 141 -210 225q-140 85 -328 85h-340v-592h385v-62h-385v-590z" />
<glyph unicode="&#xd1;" horiz-adv-x="1413" d="M180 0v1366h66l921 -1247v1247h66v-1366h-66l-921 1260v-1260h-66zM395 1489q0 115 48 195q48 79 132 79q44 0 77 -24q31 -22 51 -58q14 -24 36 -67q17 -33 42 -58q24 -24 57 -24q54 0 87 55t33 164h54q0 -115 -48 -195q-48 -79 -133 -79q-43 0 -76 24q-31 22 -51 58 q-14 24 -36 67q-17 33 -42 58q-24 24 -57 24q-54 0 -87 -55t-33 -164h-54z" />
<glyph unicode="&#xd2;" horiz-adv-x="1564" d="M133 682q0 149 46 277q47 132 129 225q82 94 206 150q122 55 268 55q194 0 343 -95t228 -254t79 -358t-79 -358t-228 -254t-343 -95q-146 0 -268 55q-124 56 -206 150q-82 93 -129 225q-46 128 -46 277zM205 682q0 -186 69 -331t202 -230q132 -84 306 -84q172 0 304 84 q133 85 203 230q71 148 71 331q0 284 -159 464q-160 181 -419 181q-262 0 -420 -180q-157 -179 -157 -465zM467 1776h92l328 -295h-62z" />
<glyph unicode="&#xd3;" horiz-adv-x="1564" d="M133 682q0 149 46 277q47 132 129 225q82 94 206 150q122 55 268 55q194 0 343 -95t228 -254t79 -358t-79 -358t-228 -254t-343 -95q-146 0 -268 55q-124 56 -206 150q-82 93 -129 225q-46 128 -46 277zM205 682q0 -186 69 -331t202 -230q132 -84 306 -84q172 0 304 84 q133 85 203 230q71 148 71 331q0 284 -159 464q-160 181 -419 181q-262 0 -420 -180q-157 -179 -157 -465zM678 1481l328 295h92l-359 -295h-61z" />
<glyph unicode="&#xd4;" horiz-adv-x="1564" d="M133 682q0 149 46 277q47 132 129 225q82 94 206 150q122 55 268 55q194 0 343 -95t228 -254t79 -358t-79 -358t-228 -254t-343 -95q-146 0 -268 55q-124 56 -206 150q-82 93 -129 225q-46 128 -46 277zM205 682q0 -186 69 -331t202 -230q132 -84 306 -84q172 0 304 84 q133 85 203 230q71 148 71 331q0 284 -159 464q-160 181 -419 181q-262 0 -420 -180q-157 -179 -157 -465zM545 1481l200 295h74l207 -295h-57l-187 245l-180 -245h-57z" />
<glyph unicode="&#xd5;" horiz-adv-x="1564" d="M133 682q0 149 46 277q47 132 129 225q82 94 206 150q122 55 268 55q194 0 343 -95t228 -254t79 -358t-79 -358t-228 -254t-343 -95q-146 0 -268 55q-124 56 -206 150q-82 93 -129 225q-46 128 -46 277zM205 682q0 -186 69 -331t202 -230q132 -84 306 -84q172 0 304 84 q133 85 203 230q71 148 71 331q0 284 -159 464q-160 181 -419 181q-262 0 -420 -180q-157 -179 -157 -465zM475 1489q0 115 48 195q48 79 132 79q44 0 77 -24q31 -22 51 -58q14 -24 36 -67q17 -33 42 -58q24 -24 57 -24q54 0 87 55t33 164h54q0 -114 -49 -195 q-48 -79 -132 -79q-43 0 -76 24q-31 22 -51 58q-14 24 -36 67q-17 33 -42 58q-24 24 -57 24q-54 0 -87 -55q-34 -57 -34 -164h-53z" />
<glyph unicode="&#xd6;" horiz-adv-x="1564" d="M133 682q0 149 46 277q47 132 129 225q82 94 206 150q122 55 268 55q194 0 343 -95t228 -254t79 -358t-79 -358t-228 -254t-343 -95q-146 0 -268 55q-124 56 -206 150q-82 93 -129 225q-46 128 -46 277zM205 682q0 -186 69 -331t202 -230q132 -84 306 -84q172 0 304 84 q133 85 203 230q71 148 71 331q0 284 -159 464q-160 181 -419 181q-262 0 -420 -180q-157 -179 -157 -465zM512 1569q0 24 18 42q17 17 41 17q25 0 42 -17q18 -18 18 -42t-18 -42t-42 -18q-23 0 -41 18t-18 42zM926 1569q0 24 18 42q17 17 41 17q25 0 42 -17t17 -42t-17 -42 q-18 -18 -42 -18q-23 0 -41 18t-18 42z" />
<glyph unicode="&#xd7;" horiz-adv-x="1011" d="M145 367l318 317l-318 317l43 43l318 -317l317 317l43 -43l-317 -317l317 -317l-43 -43l-317 317l-318 -317z" />
<glyph unicode="&#xd8;" horiz-adv-x="1564" d="M133 682q0 149 46 277q47 132 129 225q82 94 206 150q122 55 268 55q181 0 332 -89l39 66h74l-62 -102q126 -94 196 -247q71 -154 71 -335q0 -199 -79 -358t-228 -254t-343 -95q-190 0 -333 88l-37 -63h-74l59 98q-125 93 -195 248q-69 152 -69 336zM205 682 q0 -167 59 -305q59 -139 166 -223l651 1093q-131 80 -299 80q-262 0 -420 -180q-157 -179 -157 -465zM481 117q131 -80 301 -80q172 0 304 84q133 85 203 230q71 148 71 331q0 168 -60 305t-167 223z" />
<glyph unicode="&#xd9;" horiz-adv-x="1376" d="M180 518v848h66v-848q0 -229 114 -355t328 -126t328 126t114 355v848h66v-848q0 -257 -131 -400t-377 -143t-377 144q-131 145 -131 399zM373 1776h92l328 -295h-62z" />
<glyph unicode="&#xda;" horiz-adv-x="1376" d="M180 518v848h66v-848q0 -229 114 -355t328 -126t328 126t114 355v848h66v-848q0 -257 -131 -400t-377 -143t-377 144q-131 145 -131 399zM584 1481l327 295h93l-359 -295h-61z" />
<glyph unicode="&#xdb;" horiz-adv-x="1376" d="M180 518v848h66v-848q0 -229 114 -355t328 -126t328 126t114 355v848h66v-848q0 -257 -131 -400t-377 -143t-377 144q-131 145 -131 399zM455 1481l200 295h74l207 -295h-57l-187 245l-180 -245h-57z" />
<glyph unicode="&#xdc;" horiz-adv-x="1376" d="M180 518v848h66v-848q0 -229 114 -355t328 -126t328 126t114 355v848h66v-848q0 -257 -131 -400t-377 -143t-377 144q-131 145 -131 399zM422 1569q0 24 18 42q17 17 41 17q25 0 42 -17q18 -18 18 -42t-18 -42t-42 -18q-23 0 -41 18t-18 42zM836 1569q0 24 18 42 q17 17 41 17q25 0 42 -17t17 -42t-17 -42q-18 -18 -42 -18q-23 0 -41 18t-18 42z" />
<glyph unicode="&#xdd;" horiz-adv-x="1249" d="M43 1366h84l498 -709l497 709h84l-549 -774v-592h-65v592zM520 1481l328 295h92l-358 -295h-62z" />
<glyph unicode="&#xde;" horiz-adv-x="1136" d="M180 0v1366h66v-264h407q184 0 292 -113t108 -276q0 -164 -109 -274q-110 -111 -291 -111h-407v-328h-66zM246 389h405q150 0 240 90t90 234q0 142 -91 235q-90 92 -239 92h-405v-651z" />
<glyph unicode="&#xdf;" horiz-adv-x="1142" d="M176 0v1063q0 137 91 231q89 92 233 92q126 0 214 -61q89 -62 89 -164q0 -45 -19 -80q-20 -38 -49 -62q-30 -25 -66 -48l-73 -44q-39 -24 -66 -46q-28 -22 -48 -58q-19 -34 -19 -75q0 -49 27 -85q28 -37 72 -56q41 -18 102 -37q50 -16 116 -29q57 -11 117 -35 q57 -22 102 -51t72 -78q27 -50 27 -117q0 -52 -20 -103q-18 -47 -61 -91q-41 -42 -111 -66q-73 -25 -163 -25q-93 0 -165 24q-73 24 -113 54q-39 29 -84 80l49 45q114 -147 313 -147q141 0 217 67t76 162q0 61 -35 104q-35 42 -91 66q-58 24 -124 42q-90 24 -135 37 q-64 18 -124 47q-57 27 -91 76q-35 50 -35 120q0 53 25 97t63 73q31 24 82 57q69 45 82 53q37 22 63 57q25 34 25 72q0 77 -75 124q-74 46 -166 46q-109 0 -186 -74q-76 -73 -76 -194v-1063h-62z" />
<glyph unicode="&#xe0;" horiz-adv-x="1052" d="M127 305q0 150 103 240q104 90 243 90q208 0 342 -146v224q0 115 -80 180t-198 65q-100 0 -173 -36q-77 -38 -145 -119l-47 41q75 88 159 129q85 41 206 41q152 0 246 -77t94 -222v-715h-62v121q-134 -146 -342 -146q-139 0 -243 90q-103 90 -103 240zM195 305 q0 -118 81 -196t213 -78q99 0 185 39t141 112v246q-56 74 -141 113q-86 39 -185 39q-131 0 -213 -79q-81 -78 -81 -196zM221 1434h92l328 -295h-61z" />
<glyph unicode="&#xe1;" horiz-adv-x="1052" d="M127 305q0 150 103 240q104 90 243 90q208 0 342 -146v224q0 115 -80 180t-198 65q-100 0 -173 -36q-77 -38 -145 -119l-47 41q75 88 159 129q85 41 206 41q152 0 246 -77t94 -222v-715h-62v121q-134 -146 -342 -146q-139 0 -243 90q-103 90 -103 240zM195 305 q0 -118 81 -196t213 -78q99 0 185 39t141 112v246q-56 74 -141 113q-86 39 -185 39q-131 0 -213 -79q-81 -78 -81 -196zM432 1139l328 295h92l-358 -295h-62z" />
<glyph unicode="&#xe2;" horiz-adv-x="1052" d="M127 305q0 150 103 240q104 90 243 90q208 0 342 -146v224q0 115 -80 180t-198 65q-100 0 -173 -36q-77 -38 -145 -119l-47 41q75 88 159 129q85 41 206 41q152 0 246 -77t94 -222v-715h-62v121q-134 -146 -342 -146q-139 0 -243 90q-103 90 -103 240zM195 305 q0 -118 81 -196t213 -78q99 0 185 39t141 112v246q-56 74 -141 113q-86 39 -185 39q-131 0 -213 -79q-81 -78 -81 -196zM299 1139l201 295h73l207 -295h-57l-186 245l-181 -245h-57z" />
<glyph unicode="&#xe3;" horiz-adv-x="1052" d="M127 305q0 150 103 240q104 90 243 90q208 0 342 -146v224q0 115 -80 180t-198 65q-100 0 -173 -36q-77 -38 -145 -119l-47 41q75 88 159 129q85 41 206 41q152 0 246 -77t94 -222v-715h-62v121q-134 -146 -342 -146q-139 0 -243 90q-103 90 -103 240zM195 305 q0 -118 81 -196t213 -78q99 0 185 39t141 112v246q-56 74 -141 113q-86 39 -185 39q-131 0 -213 -79q-81 -78 -81 -196zM227 1147q0 115 48 195q48 79 133 79q43 0 76 -24q31 -22 51 -58q14 -24 36 -67q17 -33 42 -58q24 -24 57 -24q54 0 87 55q34 57 34 164h53 q0 -115 -48 -195q-48 -79 -132 -79q-44 0 -77 24q-31 22 -51 58q-14 24 -36 67q-17 33 -42 58q-24 24 -57 24q-54 0 -87 -55t-33 -164h-54z" />
<glyph unicode="&#xe4;" horiz-adv-x="1052" d="M127 305q0 150 103 240q104 90 243 90q208 0 342 -146v224q0 115 -80 180t-198 65q-100 0 -173 -36q-77 -38 -145 -119l-47 41q75 88 159 129q85 41 206 41q152 0 246 -77t94 -222v-715h-62v121q-134 -146 -342 -146q-139 0 -243 90q-103 90 -103 240zM195 305 q0 -118 81 -196t213 -78q99 0 185 39t141 112v246q-56 74 -141 113q-86 39 -185 39q-131 0 -213 -79q-81 -78 -81 -196zM266 1227q0 24 18 42q17 17 42 17t42 -17t17 -42t-17 -42q-18 -18 -42 -18t-42 18t-18 42zM680 1227q0 24 18 42q17 17 41 17q25 0 42 -17 q18 -18 18 -42t-18 -42t-42 -18q-23 0 -41 18t-18 42z" />
<glyph unicode="&#xe5;" horiz-adv-x="1052" d="M127 305q0 150 103 240q104 90 243 90q208 0 342 -146v224q0 115 -80 180t-198 65q-100 0 -173 -36q-77 -38 -145 -119l-47 41q75 88 159 129q85 41 206 41q152 0 246 -77t94 -222v-715h-62v121q-134 -146 -342 -146q-139 0 -243 90q-103 90 -103 240zM195 305 q0 -118 81 -196t213 -78q99 0 185 39t141 112v246q-56 74 -141 113q-86 39 -185 39q-131 0 -213 -79q-81 -78 -81 -196zM344 1323q0 78 56 134t135 56q78 0 133 -55t55 -135t-55 -135t-133 -55q-79 0 -135 56t-56 134zM393 1323q0 -58 42 -100q41 -41 100 -41q58 0 98 41 q41 43 41 100t-41 100q-40 41 -98 41q-59 0 -100 -41q-42 -42 -42 -100z" />
<glyph unicode="&#xe6;" horiz-adv-x="1853" d="M127 307q0 101 53 178q52 75 135 113q81 37 181 37q228 0 372 -141v219q0 117 -82 181t-221 64q-110 0 -189 -36q-83 -38 -157 -119l-47 41q146 170 410 170q46 0 87 -7q39 -7 87 -26q45 -18 80 -47q36 -30 59 -73q25 -48 31 -101q48 110 149 182t221 72q106 0 190 -42 q85 -42 137 -114q53 -73 80 -165q28 -96 28 -197v-21h-801q5 -124 50 -222q46 -98 134 -161q86 -61 201 -61q191 0 321 149l37 -39q-70 -81 -157 -124q-84 -42 -199 -42q-141 0 -247 76q-109 78 -159 215q-44 -135 -148 -212q-106 -79 -245 -79q-171 0 -281 89t-110 243z M195 305q0 -118 88 -196q89 -78 233 -78q160 0 256 104t96 250v39q-59 75 -153 116q-92 40 -199 40q-143 0 -233 -79q-88 -78 -88 -196zM930 530h735q0 76 -21 148q-20 70 -64 137q-42 65 -116 104t-168 39q-86 0 -155 -38q-67 -37 -114 -103q-43 -60 -70 -138 q-25 -73 -27 -149z" />
<glyph unicode="&#xe7;" horiz-adv-x="1009" d="M123 496q0 106 33 201t93 165q61 72 147 111q90 41 194 41q114 0 193 -41q76 -40 145 -125l-45 -37q-108 147 -289 147q-185 0 -294 -131q-110 -133 -110 -331q0 -200 110 -333q110 -132 294 -132q180 0 289 149l45 -39q-64 -81 -137 -121t-179 -45l-32 -90q31 25 77 25 q61 0 97 -36q37 -37 37 -97q0 -68 -58 -112t-143 -44q-55 0 -108 17q-55 18 -83 40l29 56q67 -58 162 -58q58 0 100 28q41 27 41 73q0 41 -22 64q-23 24 -68 24q-55 0 -88 -39l-45 27l45 124q-128 9 -229 82q-99 72 -150 186t-51 251z" />
<glyph unicode="&#xe8;" horiz-adv-x="1169" d="M123 496q0 216 134 367t331 151q110 0 199 -42t144 -114q56 -73 86 -165q30 -93 30 -197v-21h-854q5 -188 118 -316t297 -128q204 0 344 149l37 -39q-79 -82 -170 -124t-211 -42q-214 0 -349 147q-136 148 -136 374zM193 530h788q0 71 -25 148q-24 72 -71 138 q-46 64 -124 103t-175 39q-92 0 -167 -38q-74 -38 -124 -103q-45 -59 -74 -138q-26 -72 -28 -149zM272 1434h93l327 -295h-61z" />
<glyph unicode="&#xe9;" horiz-adv-x="1169" d="M123 496q0 216 134 367t331 151q110 0 199 -42t144 -114q56 -73 86 -165q30 -93 30 -197v-21h-854q5 -188 118 -316t297 -128q204 0 344 149l37 -39q-79 -82 -170 -124t-211 -42q-214 0 -349 147q-136 148 -136 374zM193 530h788q0 71 -25 148q-24 72 -71 138 q-46 64 -124 103t-175 39q-92 0 -167 -38q-74 -38 -124 -103q-45 -59 -74 -138q-26 -72 -28 -149zM483 1139l328 295h92l-358 -295h-62z" />
<glyph unicode="&#xea;" horiz-adv-x="1169" d="M123 496q0 216 134 367t331 151q110 0 199 -42t144 -114q56 -73 86 -165q30 -93 30 -197v-21h-854q5 -188 118 -316t297 -128q204 0 344 149l37 -39q-79 -82 -170 -124t-211 -42q-214 0 -349 147q-136 148 -136 374zM193 530h788q0 71 -25 148q-24 72 -71 138 q-46 64 -124 103t-175 39q-92 0 -167 -38q-74 -38 -124 -103q-45 -59 -74 -138q-26 -72 -28 -149zM352 1139l201 295h74l207 -295h-58l-186 245l-180 -245h-58z" />
<glyph unicode="&#xeb;" horiz-adv-x="1169" d="M123 496q0 216 134 367t331 151q110 0 199 -42t144 -114q56 -73 86 -165q30 -93 30 -197v-21h-854q5 -188 118 -316t297 -128q204 0 344 149l37 -39q-79 -82 -170 -124t-211 -42q-214 0 -349 147q-136 148 -136 374zM193 530h788q0 71 -25 148q-24 72 -71 138 q-46 64 -124 103t-175 39q-92 0 -167 -38q-74 -38 -124 -103q-45 -59 -74 -138q-26 -72 -28 -149zM324 1227q0 24 18 42q17 17 41 17q25 0 42 -17t17 -42t-17 -42q-18 -18 -42 -18q-23 0 -41 18t-18 42zM737 1227q0 24 18 42q17 17 42 17t42 -17t17 -42t-17 -42 q-18 -18 -42 -18t-42 18t-18 42z" />
<glyph unicode="&#xec;" horiz-adv-x="413" d="M-109 1434h93l327 -295h-61zM176 0v989h62v-989h-62z" />
<glyph unicode="&#xed;" horiz-adv-x="413" d="M102 1139l328 295h92l-358 -295h-62zM176 0v989h62v-989h-62z" />
<glyph unicode="&#xee;" horiz-adv-x="413" d="M-33 1139l201 295h74l207 -295h-58l-186 245l-180 -245h-58zM176 0v989h62v-989h-62z" />
<glyph unicode="&#xef;" horiz-adv-x="413" d="M-57 1225q0 23 17 40t40 17t40 -17t17 -40t-17 -40q-18 -18 -40 -18t-40 18q-17 17 -17 40zM176 0v989h62v-989h-62zM356 1225q0 22 18 40q17 17 40 17t40 -17t17 -40t-17 -40q-18 -18 -40 -18t-40 18t-18 40z" />
<glyph unicode="&#xf0;" horiz-adv-x="1167" d="M123 496q0 147 56 262q58 119 163 187q106 69 242 69q92 0 172 -40q77 -39 147 -134q-129 201 -332 356l-288 -127l-23 53l258 115q-76 54 -178 117l37 55q134 -82 211 -141l227 100l23 -53l-199 -88q405 -334 405 -731q0 -147 -55 -264q-55 -118 -162 -187 q-108 -70 -243 -70q-205 0 -333 149t-128 372zM190 496q0 -123 45 -228q45 -106 136 -171q91 -66 213 -66q93 0 168 38t124 104q51 68 75 148q26 86 26 175t-26 173q-25 81 -75 148q-48 64 -124 103q-75 38 -168 38q-122 0 -213 -66q-90 -65 -136 -171q-45 -103 -45 -225z " />
<glyph unicode="&#xf1;" horiz-adv-x="1081" d="M176 0v989h62v-155q60 72 160 126t198 54q152 0 231 -77q78 -77 78 -247v-690h-61v690q0 148 -66 208t-190 60q-101 0 -197 -54q-99 -56 -153 -132v-772h-62zM233 1147q0 114 49 195q48 79 132 79q43 0 76 -24q31 -22 51 -58q27 -47 37 -67q17 -33 42 -58q24 -24 56 -24 q54 0 87 55q34 57 34 164h53q0 -115 -48 -195q-48 -79 -132 -79q-44 0 -77 24q-31 22 -51 58q-14 24 -36 67q-17 33 -42 58q-24 24 -56 24q-55 0 -88 -55t-33 -164h-54z" />
<glyph unicode="&#xf2;" horiz-adv-x="1167" d="M123 496q0 147 56 262q58 119 163 187q106 69 242 69t243 -69q106 -69 162 -187q55 -116 55 -262q0 -147 -55 -264q-55 -118 -162 -187q-108 -70 -243 -70q-205 0 -333 149t-128 372zM190 496q0 -123 45 -228q45 -106 136 -171q91 -66 213 -66q93 0 168 38t124 104 q51 68 75 148q26 86 26 175t-26 173q-25 81 -75 148q-48 64 -124 103q-75 38 -168 38q-122 0 -213 -66q-90 -65 -136 -171q-45 -103 -45 -225zM268 1434h92l328 -295h-61z" />
<glyph unicode="&#xf3;" horiz-adv-x="1167" d="M123 496q0 147 56 262q58 119 163 187q106 69 242 69t243 -69q106 -69 162 -187q55 -116 55 -262q0 -147 -55 -264q-55 -118 -162 -187q-108 -70 -243 -70q-205 0 -333 149t-128 372zM190 496q0 -123 45 -228q45 -106 136 -171q91 -66 213 -66q93 0 168 38t124 104 q51 68 75 148q26 86 26 175t-26 173q-25 81 -75 148q-48 64 -124 103q-75 38 -168 38q-122 0 -213 -66q-90 -65 -136 -171q-45 -103 -45 -225zM479 1139l328 295h92l-358 -295h-62z" />
<glyph unicode="&#xf4;" horiz-adv-x="1167" d="M123 496q0 147 56 262q58 119 163 187q106 69 242 69t243 -69q106 -69 162 -187q55 -116 55 -262q0 -147 -55 -264q-55 -118 -162 -187q-108 -70 -243 -70q-205 0 -333 149t-128 372zM190 496q0 -123 45 -228q45 -106 136 -171q91 -66 213 -66q93 0 168 38t124 104 q51 68 75 148q26 86 26 175t-26 173q-25 81 -75 148q-48 64 -124 103q-75 38 -168 38q-122 0 -213 -66q-90 -65 -136 -171q-45 -103 -45 -225zM346 1139l201 295h74l206 -295h-57l-186 245l-181 -245h-57z" />
<glyph unicode="&#xf5;" horiz-adv-x="1167" d="M123 496q0 147 56 262q58 119 163 187q106 69 242 69t243 -69q106 -69 162 -187q55 -116 55 -262q0 -147 -55 -264q-55 -118 -162 -187q-108 -70 -243 -70q-205 0 -333 149t-128 372zM190 496q0 -123 45 -228q45 -106 136 -171q91 -66 213 -66q93 0 168 38t124 104 q51 68 75 148q26 86 26 175t-26 173q-25 81 -75 148q-48 64 -124 103q-75 38 -168 38q-122 0 -213 -66q-90 -65 -136 -171q-45 -103 -45 -225zM276 1147q0 114 49 195q48 79 132 79q43 0 76 -24q31 -22 51 -58q27 -47 37 -67q17 -33 42 -58q24 -24 56 -24q54 0 87 55 q34 57 34 164h53q0 -115 -48 -195q-48 -79 -132 -79q-44 0 -77 24q-31 22 -51 58q-14 24 -36 67q-17 33 -42 58q-24 24 -56 24q-55 0 -88 -55t-33 -164h-54z" />
<glyph unicode="&#xf6;" horiz-adv-x="1167" d="M123 496q0 147 56 262q58 119 163 187q106 69 242 69t243 -69q106 -69 162 -187q55 -116 55 -262q0 -147 -55 -264q-55 -118 -162 -187q-108 -70 -243 -70q-205 0 -333 149t-128 372zM190 496q0 -123 45 -228q45 -106 136 -171q91 -66 213 -66q93 0 168 38t124 104 q51 68 75 148q26 86 26 175t-26 173q-25 81 -75 148q-48 64 -124 103q-75 38 -168 38q-122 0 -213 -66q-90 -65 -136 -171q-45 -103 -45 -225zM317 1227q0 24 18 42q17 17 42 17t42 -17t17 -42t-17 -42q-18 -18 -42 -18t-42 18t-18 42zM731 1227q0 24 18 42q17 17 42 17 t42 -17t17 -42t-17 -42q-18 -18 -42 -18t-42 18t-18 42z" />
<glyph unicode="&#xf7;" horiz-adv-x="1046" d="M59 659v62h928v-62h-928zM457 272q0 26 20 46t47 20q28 0 48 -20t20 -46q0 -27 -20 -47t-48 -20q-27 0 -47 20t-20 47zM457 1096q0 26 20 46q19 19 47 19q29 0 48 -19q20 -20 20 -46q0 -28 -20 -48t-48 -20q-27 0 -47 20t-20 48z" />
<glyph unicode="&#xf8;" horiz-adv-x="1167" d="M123 496q0 147 56 262q58 119 163 187q106 69 242 69q156 0 272 -90l49 65h68l-76 -102q70 -70 109 -172q38 -99 38 -219q0 -147 -55 -264q-55 -118 -162 -187q-108 -70 -243 -70q-164 0 -285 101l-57 -76h-70l86 115q-135 149 -135 381zM190 496q0 -197 107 -328 l522 706q-101 84 -235 84q-122 0 -213 -66q-90 -65 -136 -171q-45 -103 -45 -225zM334 125q100 -94 250 -94q93 0 168 38t124 104q51 68 75 148q26 86 26 175q0 98 -30 187q-31 91 -87 153z" />
<glyph unicode="&#xf9;" horiz-adv-x="1081" d="M176 295v694h62v-694q0 -147 65 -205q67 -59 191 -59q100 0 198 52q101 53 152 128v778h61v-989h-61v152q-67 -76 -164 -126q-99 -51 -195 -51q-153 0 -231 75t-78 245zM225 1434h92l328 -295h-61z" />
<glyph unicode="&#xfa;" horiz-adv-x="1081" d="M176 295v694h62v-694q0 -147 65 -205q67 -59 191 -59q100 0 198 52q101 53 152 128v778h61v-989h-61v152q-67 -76 -164 -126q-99 -51 -195 -51q-153 0 -231 75t-78 245zM436 1139l328 295h92l-358 -295h-62z" />
<glyph unicode="&#xfb;" horiz-adv-x="1081" d="M176 295v694h62v-694q0 -147 65 -205q67 -59 191 -59q100 0 198 52q101 53 152 128v778h61v-989h-61v152q-67 -76 -164 -126q-99 -51 -195 -51q-153 0 -231 75t-78 245zM299 1139l201 295h73l207 -295h-57l-186 245l-181 -245h-57z" />
<glyph unicode="&#xfc;" horiz-adv-x="1081" d="M176 295v694h62v-694q0 -147 65 -205q67 -59 191 -59q100 0 198 52q101 53 152 128v778h61v-989h-61v152q-67 -76 -164 -126q-99 -51 -195 -51q-153 0 -231 75t-78 245zM283 1227q0 24 18 42q17 17 41 17q25 0 42 -17t17 -42t-17 -42q-18 -18 -42 -18q-23 0 -41 18 t-18 42zM696 1227q0 24 18 42q17 17 42 17t42 -17t17 -42t-17 -42q-18 -18 -42 -18t-42 18t-18 42z" />
<glyph unicode="&#xfd;" horiz-adv-x="964" d="M23 989h71l389 -917l387 917h72l-524 -1222q-75 -168 -217 -168q-58 0 -99 14l13 57q35 -16 86 -16q50 0 87 29q34 27 68 106l90 205zM379 1139l328 295h92l-359 -295h-61z" />
<glyph unicode="&#xfe;" horiz-adv-x="1150" d="M176 -377v1743h62v-543q53 81 149 136t207 55q200 0 321 -142t121 -376t-121 -377q-121 -144 -321 -144q-108 0 -202 53q-93 52 -154 142v-547h-62zM238 231q50 -84 147 -141q100 -59 209 -59q120 0 204 62q86 63 128 167q43 106 43 236q0 200 -100 332q-99 130 -275 130 q-110 0 -209 -57t-147 -139v-531z" />
<glyph unicode="&#xff;" horiz-adv-x="964" d="M23 989h71l389 -917l387 917h72l-524 -1222q-75 -168 -217 -168q-58 0 -99 14l13 57q35 -16 86 -16q50 0 87 29q34 27 68 106l90 205zM217 1227q0 24 18 42q17 17 41 17q25 0 42 -17q18 -18 18 -42t-18 -42t-42 -18q-23 0 -41 18t-18 42zM631 1227q0 24 18 42 q17 17 41 17q25 0 42 -17q18 -18 18 -42t-18 -42t-42 -18q-23 0 -41 18t-18 42z" />
<glyph unicode="&#x152;" horiz-adv-x="2301" d="M133 682q0 148 46 276q47 130 129 224t206 150q120 54 268 54q175 0 323 -88t228 -254v322h836v-61h-770v-572h755v-61h-755v-611h770v-61h-836v322q-79 -166 -228 -256q-150 -91 -323 -91q-146 0 -268 55q-124 56 -206 150q-82 93 -129 225q-46 128 -46 277zM205 682 q0 -186 69 -332q69 -145 202 -230q130 -83 306 -83q193 0 337 104q145 105 214 305v474q-69 201 -214 303t-337 102q-262 0 -420 -179q-157 -178 -157 -464z" />
<glyph unicode="&#x153;" horiz-adv-x="2023" d="M123 496q0 147 56 262q58 119 163 187q106 69 242 69q80 0 149 -24q66 -23 115 -61q44 -34 82 -83q36 -46 54 -89q21 -48 28 -79q15 49 31 81q21 42 58 88q40 50 83 83q46 36 114 60t144 24q110 0 199 -42t144 -114q56 -73 86 -165q30 -93 30 -197v-21h-854 q5 -188 118 -316t297 -128q204 0 344 149l37 -39q-79 -82 -170 -124t-211 -42q-81 0 -153 23q-71 23 -120 58q-47 34 -86 82q-38 47 -59 89q-19 37 -32 84q-10 -34 -31 -81q-17 -39 -54 -88q-34 -46 -81 -83q-45 -36 -114 -60t-148 -24q-205 0 -333 149t-128 372zM190 496 q0 -91 27 -175q27 -85 75 -149q48 -65 125 -104t167 -39q92 0 168 39q77 39 124 104q51 70 75 149q26 86 26 175t-26 173q-25 81 -75 148q-48 64 -124 103q-75 38 -168 38q-122 0 -213 -66q-90 -65 -136 -171q-45 -103 -45 -225zM1047 530h788q0 71 -25 148q-24 72 -71 138 q-46 64 -124 103t-175 39q-92 0 -167 -38q-74 -38 -124 -103q-45 -59 -74 -138q-26 -72 -28 -149z" />
<glyph unicode="&#x178;" horiz-adv-x="1249" d="M43 1366h84l498 -709l497 709h84l-549 -774v-592h-65v592zM367 1569q0 24 18 42q17 17 41 17q25 0 42 -17t17 -42t-17 -42q-18 -18 -42 -18q-23 0 -41 18t-18 42zM780 1569q0 24 18 42q17 17 42 17t42 -17t17 -42t-17 -42q-18 -18 -42 -18t-42 18t-18 42z" />
<glyph unicode="&#x2dc;" horiz-adv-x="616" d="M0 1147q0 115 48 195q48 79 132 79q44 0 77 -24q31 -22 51 -58q14 -24 36 -67q17 -33 42 -58q24 -24 56 -24q55 0 88 55t33 164h53q0 -115 -48 -195q-48 -79 -132 -79q-43 0 -76 24q-31 22 -51 58q-27 47 -37 67q-17 33 -42 58q-24 24 -56 24q-54 0 -87 -55 q-34 -57 -34 -164h-53z" />
<glyph unicode="&#x2000;" horiz-adv-x="899" />
<glyph unicode="&#x2001;" horiz-adv-x="1798" />
<glyph unicode="&#x2002;" horiz-adv-x="899" />
<glyph unicode="&#x2003;" horiz-adv-x="1798" />
<glyph unicode="&#x2004;" horiz-adv-x="599" />
<glyph unicode="&#x2005;" horiz-adv-x="449" />
<glyph unicode="&#x2006;" horiz-adv-x="299" />
<glyph unicode="&#x2007;" horiz-adv-x="299" />
<glyph unicode="&#x2008;" horiz-adv-x="224" />
<glyph unicode="&#x2009;" horiz-adv-x="359" />
<glyph unicode="&#x200a;" horiz-adv-x="99" />
<glyph unicode="&#x2010;" horiz-adv-x="614" d="M61 465v61h492v-61h-492z" />
<glyph unicode="&#x2011;" horiz-adv-x="614" d="M61 465v61h492v-61h-492z" />
<glyph unicode="&#x2012;" horiz-adv-x="614" d="M61 465v61h492v-61h-492z" />
<glyph unicode="&#x2013;" horiz-adv-x="1214" d="M61 465v61h1092v-61h-1092z" />
<glyph unicode="&#x2014;" horiz-adv-x="1705" d="M61 465v61h1584v-61h-1584z" />
<glyph unicode="&#x2018;" d="M113 1139q0 73 37 141t90 106l45 -36q-51 -40 -79 -89q-30 -53 -30 -100q16 2 17 2q29 0 47 -19q18 -20 18 -48q0 -26 -18 -46t-47 -20q-34 0 -57 29t-23 80z" />
<glyph unicode="&#x2019;" d="M119 1067q49 38 78 89q30 52 30 99q-3 0 -5.5 -0.5t-4.5 -1t-3.5 -0.5h-2.5q-29 0 -47 20q-19 21 -19 48q0 25 19 46q18 19 47 19q34 0 57 -29t23 -79q0 -71 -38 -141q-39 -71 -89 -107z" />
<glyph unicode="&#x201c;" horiz-adv-x="677" d="M135 1139q0 71 38 141q38 69 89 106l45 -36q-49 -38 -78 -89q-30 -53 -30 -100q3 0 5.5 0.5t4.5 1t3.5 0.5h2.5q29 0 47 -19q19 -21 19 -48q0 -25 -19 -46q-18 -20 -47 -20q-34 0 -57 29t-23 80zM387 1139q0 73 37 141t90 106l45 -36q-49 -38 -78 -89q-30 -53 -30 -100 q2 0 5 0.5t5 1t3.5 0.5h2.5q29 0 47 -19q18 -20 18 -48q0 -26 -18 -46t-47 -20q-34 0 -57 29t-23 80z" />
<glyph unicode="&#x201d;" horiz-adv-x="677" d="M119 1067q49 38 78 89q30 52 30 99q-3 0 -5.5 -0.5t-4.5 -1t-3.5 -0.5h-2.5q-29 0 -47 20q-19 21 -19 48q0 25 19 46q18 19 47 19q34 0 57 -29t23 -79q0 -71 -38 -141q-39 -71 -89 -107zM371 1067q49 38 78 89q30 52 30 99q-2 0 -5 -0.5t-5 -1t-3.5 -0.5h-2.5 q-29 0 -47 20q-19 21 -19 48q0 25 19 46q18 19 47 19q34 0 57 -29t23 -79q0 -71 -38 -141q-39 -71 -89 -107z" />
<glyph unicode="&#x201e;" horiz-adv-x="677" d="M119 -205q49 38 78 89q30 53 30 100q-3 0 -5.5 -0.5t-4.5 -1t-3.5 -0.5h-2.5q-29 0 -47 19q-19 21 -19 48q0 25 19 46q18 20 47 20q34 0 57 -29t23 -80q0 -71 -38 -141q-39 -71 -89 -107zM371 -205q49 38 78 89q30 53 30 100q-2 0 -5 -0.5t-5 -1t-3.5 -0.5h-2.5 q-29 0 -47 19q-19 21 -19 48q0 25 19 46q18 20 47 20q34 0 57 -29t23 -80q0 -71 -38 -141q-39 -71 -89 -107z" />
<glyph unicode="&#x2022;" horiz-adv-x="733" d="M168 496q0 82 59 141t142 59q82 0 141 -59t59 -141t-59 -141q-58 -58 -141 -58q-84 0 -142 58q-59 59 -59 141z" />
<glyph unicode="&#x2026;" horiz-adv-x="1277" d="M145 49q0 26 20 46t48 20t48 -20t20 -46q0 -27 -20 -47t-48 -20t-48 20t-20 47zM571 49q0 26 20 46t48 20t48 -20t20 -46q0 -27 -20 -47t-48 -20t-48 20t-20 47zM997 49q0 26 20 46t48 20t48 -20t20 -46q0 -27 -20 -47t-48 -20t-48 20t-20 47z" />
<glyph unicode="&#x202f;" horiz-adv-x="359" />
<glyph unicode="&#x2039;" horiz-adv-x="530" d="M61 498l328 362h80l-328 -362l328 -369h-80z" />
<glyph unicode="&#x203a;" horiz-adv-x="530" d="M61 129l328 369l-328 362h80l328 -362l-328 -369h-80z" />
<glyph unicode="&#x205f;" horiz-adv-x="449" />
<glyph unicode="&#x20ac;" horiz-adv-x="1400" d="M80 506v61h102q-8 53 -8 115q0 36 8 119h-102v61h113q56 240 238 383q183 144 425 144q289 0 475 -215l-51 -46q-74 94 -185 146q-114 53 -239 53q-214 0 -376 -126q-161 -125 -214 -339h713v-61h-725q-8 -56 -8 -119q0 -37 8 -115h725v-61h-713q50 -213 212 -341 q163 -128 378 -128q125 0 239 53q111 52 185 146l53 -43q-192 -218 -477 -218q-243 0 -427 146t-236 385h-113z" />
<glyph unicode="&#x2122;" horiz-adv-x="929" d="M35 1313v53h311v-53h-127v-398h-57v398h-127zM420 915v451h88l131 -328l131 328h88v-451h-57v373l-154 -373h-16l-154 373v-373h-57z" />
<glyph unicode="&#x25fc;" horiz-adv-x="988" d="M0 0v988h988v-988h-988z" />
</font>
</defs>
</svg>
